<?xml version="1.0" encoding="UTF-8" standalone="no"?><!DOCTYPE svg PUBLIC "-//W3C//DTD SVG 1.1//EN" "http://www.w3.org/Graphics/SVG/1.1/DTD/svg11.dtd"><svg width="100%" height="100%" viewBox="0 0 120 72" version="1.1" xmlns="http://www.w3.org/2000/svg" xmlns:xlink="http://www.w3.org/1999/xlink" xml:space="preserve" xmlns:serif="http://www.serif.com/" style="fill-rule:evenodd;clip-rule:evenodd;"><path d="M114,16l0,40c0,3.311 -2.689,6 -6,6l-96,0c-3.311,0 -6,-2.689 -6,-6l0,-40c0,-3.311 2.689,-6 6,-6l96,0c3.311,0 6,2.689 6,6Z" style="fill:#fff;stroke:#111;stroke-width:4px;"/><path d="M32.372,18.659l0,26.064c0,2.208 -1.792,4 -4,4l-12.33,0c-2.208,0 -4,-1.792 -4,-4l0,-26.064c0,-2.208 1.792,-4 4,-4l12.33,0c2.208,0 4,1.792 4,4Z" style="fill:#fff;stroke:#111;stroke-width:3.55px;"/><path d="M38.834,10l0.144,32.085c0.278,6.817 5.266,10.486 12.189,10.829c8.408,0.416 62.833,0.468 62.833,0.468" style="fill:none;stroke:#000;stroke-width:3px;stroke-linecap:round;stroke-linejoin:round;stroke-miterlimit:1.5;"/><path d="M12,62l0,6m96,-6l0,6" style="fill-rule:nonzero;stroke:#111;stroke-width:4px;stroke-linecap:round;"/><path d="M52.844,52.976l-46.844,0.406" style="fill:none;stroke:#000;stroke-width:3px;stroke-linecap:round;stroke-linejoin:round;stroke-miterlimit:1.5;"/></svg>