<?xml version="1.0" encoding="UTF-8" standalone="no"?><!DOCTYPE svg PUBLIC "-//W3C//DTD SVG 1.1//EN" "http://www.w3.org/Graphics/SVG/1.1/DTD/svg11.dtd"><svg width="100%" height="100%" viewBox="0 0 120 72" version="1.1" xmlns="http://www.w3.org/2000/svg" xmlns:xlink="http://www.w3.org/1999/xlink" xml:space="preserve" xmlns:serif="http://www.serif.com/" style="fill-rule:evenodd;clip-rule:evenodd;"><path d="M114,22.085l0,27.829c0,7.924 -6.433,14.357 -14.357,14.357l-79.286,0c-7.924,0 -14.357,-6.433 -14.357,-14.357l0,-27.829c0,-7.924 6.433,-14.357 14.357,-14.357l79.286,0c7.924,0 14.357,6.433 14.357,14.357Z" style="fill:#fff;stroke:#111;stroke-width:3.13px;"/><path d="M106.954,13.728l0,37.134c0,3.311 -2.689,6 -6,6l-88.954,0c-3.311,0 -6,-2.689 -6,-6l0,-37.134c0,-3.311 2.689,-6 6,-6l88.954,0c3.311,0 6,2.689 6,6Z" style="fill:#fff;stroke:#111;stroke-width:2.82px;"/><path d="M32.491,19.779l0,25.033c0,2.208 -1.792,4 -4,4l-11.003,0c-2.208,0 -4,-1.792 -4,-4l0,-25.033c0,-2.208 1.792,-4 4,-4l11.003,0c2.208,0 4,1.792 4,4Z" style="fill:#fff;stroke:#111;stroke-width:2.89px;"/><path d="M40.673,7.728l0.341,49.134" style="fill:none;stroke:#000;stroke-width:3px;stroke-linecap:round;stroke-linejoin:round;stroke-miterlimit:1.5;"/><path d="M94.302,46.358l5.524,5.096" style="fill:none;stroke:#000;stroke-width:3px;stroke-linecap:round;stroke-linejoin:round;stroke-miterlimit:1.5;"/><path d="M99.826,45.146l-5.524,6.309" style="fill:none;stroke:#000;stroke-width:3px;stroke-linecap:round;stroke-linejoin:round;stroke-miterlimit:1.5;"/><path d="M72.606,14.426l-5.776,4.536" style="fill:none;stroke:#000;stroke-width:3px;stroke-linecap:round;stroke-linejoin:round;stroke-miterlimit:1.5;"/><path d="M74.643,21.001l-6.846,-6.574" style="fill:none;stroke:#000;stroke-width:3px;stroke-linecap:round;stroke-linejoin:round;stroke-miterlimit:1.5;"/><path d="M62.322,45.146l-3.872,-4.322" style="fill:none;stroke:#000;stroke-width:3px;stroke-linecap:round;stroke-linejoin:round;stroke-miterlimit:1.5;"/><path d="M57.139,46.358l6.123,-5.535" style="fill:none;stroke:#000;stroke-width:3px;stroke-linecap:round;stroke-linejoin:round;stroke-miterlimit:1.5;"/><path d="M98.142,15.606l-6.721,8.314" style="fill:none;stroke:#000;stroke-width:3px;stroke-linecap:round;stroke-linejoin:round;stroke-miterlimit:1.5;"/><path d="M91.421,15.606l6.721,8.314" style="fill:none;stroke:#000;stroke-width:3px;stroke-linecap:round;stroke-linejoin:round;stroke-miterlimit:1.5;"/><path d="M77.56,33.237l7.882,3.417" style="fill:none;stroke:#000;stroke-width:3px;stroke-linecap:round;stroke-linejoin:round;stroke-miterlimit:1.5;"/><path d="M79.643,39.074l3.334,-7.999" style="fill:none;stroke:#000;stroke-width:3px;stroke-linecap:round;stroke-linejoin:round;stroke-miterlimit:1.5;"/><path d="M52.701,22.473l-3.747,4.888" style="fill:none;stroke:#000;stroke-width:3px;stroke-linecap:round;stroke-linejoin:round;stroke-miterlimit:1.5;"/><path d="M47.398,22.473l6.29,4.888" style="fill:none;stroke:#000;stroke-width:3px;stroke-linecap:round;stroke-linejoin:round;stroke-miterlimit:1.5;"/></svg>