<?xml version="1.0" encoding="UTF-8" standalone="no"?><!DOCTYPE svg PUBLIC "-//W3C//DTD SVG 1.1//EN" "http://www.w3.org/Graphics/SVG/1.1/DTD/svg11.dtd"><svg width="100%" height="100%" viewBox="0 0 72 72" version="1.1" xmlns="http://www.w3.org/2000/svg" xmlns:xlink="http://www.w3.org/1999/xlink" xml:space="preserve" xmlns:serif="http://www.serif.com/" style="fill-rule:evenodd;clip-rule:evenodd;stroke-linecap:round;stroke-linejoin:round;stroke-miterlimit:1.5;"><path d="M48.181,34.335c8.308,1.242 16.435,5.987 16.067,10.042c-0.729,8.021 -13.977,11.263 -28.247,11.13c-15.318,-0.143 -28.54,-4.414 -28.247,-11.13c0.231,-5.305 8.403,-9.305 15.544,-9.941" style="fill:none;stroke:#000;stroke-width:3px;"/><path d="M36.949,29.629c0,0 1.071,1.499 -0.334,5.611c-0.483,1.411 -5.365,3.723 -7.869,6.961c-2.211,2.86 -2.104,6.767 -2.104,6.767c0,0 -3.352,-1.662 -5.294,-5.16c-1.673,-3.013 -2.448,-6.987 -1.043,-9.766c1.399,-2.769 3.979,-6.044 6.873,-9.002c4.134,-4.226 4.196,-10.844 4.196,-10.844c0,0 1.459,3.379 1.258,6.435c-0.261,3.972 -2.216,8.11 -2.216,8.11c0,0 8.869,-7.699 9.456,-14.019c0.506,-5.447 -1.75,-14.722 -1.75,-14.722c0,0 14.456,17.321 14.3,31.729c-0.115,10.597 -3.474,15.403 -8.245,17.707c-2.136,1.032 1.71,-6.455 -0.026,-11.942c-1.62,-5.12 -7.202,-7.866 -7.202,-7.866Z"/><path d="M7.759,44.923c1.724,27.232 18.824,25.625 28.241,25.625c9.417,0 27.556,0.771 28.259,-25.625" style="fill:none;stroke:#000;stroke-width:3px;"/></svg>