<?xml version="1.0" encoding="UTF-8" standalone="no"?><!DOCTYPE svg PUBLIC "-//W3C//DTD SVG 1.1//EN" "http://www.w3.org/Graphics/SVG/1.1/DTD/svg11.dtd"><svg width="100%" height="100%" viewBox="0 0 96 72" version="1.1" xmlns="http://www.w3.org/2000/svg" xmlns:xlink="http://www.w3.org/1999/xlink" xml:space="preserve" xmlns:serif="http://www.serif.com/" style="fill-rule:evenodd;clip-rule:evenodd;"><path d="M12,34c0.012,-1.692 1.551,-5.5 10.664,-8.419c5.619,-1.799 12.761,-4.492 20.117,-4.563c9.867,-0.096 18.313,-0.066 25.119,0.434c11.203,0.822 16.086,6.662 16.101,12.548l0,22.508l-10.439,3.492l-61.561,0l0,-26Z" style="fill:#fff;fill-rule:nonzero;stroke:#111;stroke-width:3px;"/><path d="M12,37.139c0,-11.431 9.405,-11.557 30.78,-11.557c21.375,0 30.78,0.127 30.78,11.557l0,22.861l-61.561,0l0,-22.861Z" style="fill:#fff;fill-rule:nonzero;stroke:#111;stroke-width:2.6px;"/><path d="M12,40l61.561,0l10.439,-2.177" style="fill-rule:nonzero;stroke:#111;stroke-width:3px;"/><path d="M48.78,40l0,6c0,1.104 -0.896,2 -2,2l-8,0c-1.104,0 -2,-0.896 -2,-2l0,-6c0,-1.104 0.896,-2 2,-2l8,0c1.104,0 2,0.896 2,2Z" style="fill:#fff;stroke:#111;stroke-width:3px;"/></svg>