<?xml version="1.0" encoding="UTF-8" standalone="no"?><!DOCTYPE svg PUBLIC "-//W3C//DTD SVG 1.1//EN" "http://www.w3.org/Graphics/SVG/1.1/DTD/svg11.dtd"><svg width="100%" height="100%" viewBox="0 0 72 72" version="1.1" xmlns="http://www.w3.org/2000/svg" xmlns:xlink="http://www.w3.org/1999/xlink" xml:space="preserve" xmlns:serif="http://www.serif.com/" style="fill-rule:evenodd;clip-rule:evenodd;"><path d="M62,21.675l0,36.325c0,2.208 -1.792,4 -4,4l-40.942,-0.027l-7.058,-8.355l0,-39.618c0,-2.208 1.792,-4 4,-4l39.941,0c0.869,0 8.059,11.675 8.059,11.675Z" style="fill:#fff;stroke:#111;stroke-width:3px;"/><path d="M55.88,13.529l0,38.822c0,1.948 -1.581,3.529 -3.529,3.529l-38.822,0c-1.948,0 -3.529,-1.581 -3.529,-3.529l0,-38.822c0,-1.948 1.581,-3.529 3.529,-3.529l38.822,0c1.948,0 3.529,1.581 3.529,3.529Z" style="fill:#fff;stroke:#111;stroke-width:3px;"/><path d="M17.058,17.058l31.763,31.763m0,-31.763l-31.763,31.763m15.882,-38.822l0,45.88m-22.94,-22.94l45.88,0" style="fill:none;fill-rule:nonzero;stroke:#000;stroke-opacity:0.75;stroke-width:3px;"/><path d="M55.88,54.658l5.225,5.863" style="fill:none;stroke:#000;stroke-width:3px;stroke-linecap:round;stroke-linejoin:round;stroke-miterlimit:1.5;"/></svg>