<?xml version="1.0" encoding="UTF-8" standalone="no"?><!DOCTYPE svg PUBLIC "-//W3C//DTD SVG 1.1//EN" "http://www.w3.org/Graphics/SVG/1.1/DTD/svg11.dtd"><svg width="100%" height="100%" viewBox="0 0 120 36" version="1.1" xmlns="http://www.w3.org/2000/svg" xmlns:xlink="http://www.w3.org/1999/xlink" xml:space="preserve" xmlns:serif="http://www.serif.com/" style="fill-rule:evenodd;clip-rule:evenodd;"><path d="M116,10l0,16c0,2.208 -1.792,4 -4,4l-104,0c-2.208,0 -4,-1.792 -4,-4l0,-16c0,-2.208 1.792,-4 4,-4l104,0c2.208,0 4,1.792 4,4Z" style="fill:#fff;stroke:#111;stroke-width:4px;"/><circle cx="54" cy="18" r="1.6" style="fill:#111;"/><circle cx="66" cy="18" r="1.6" style="fill:#111;"/><path d="M67.735,18.26l0,5.282c0,1.104 -0.896,2 -2,2l-11.469,0c-1.104,0 -2,-0.896 -2,-2l0,-5.282c0,-1.104 0.896,-2 2,-2l11.469,0c1.104,0 2,0.896 2,2Z" style="fill:#fff;stroke:#111;stroke-width:2.17px;"/><path d="M56.133,16.26l0,-1.702c0,-2.398 1.702,-4.099 3.867,-4.099c2.166,0 3.867,1.702 3.867,4.099l0,1.702" style="fill:none;fill-rule:nonzero;stroke:#111;stroke-width:2.01px;stroke-linecap:round;"/><circle cx="60" cy="19.7" r="1.7" style="fill:#111;"/><path d="M60,21.2l0,1.94" style="fill:none;fill-rule:nonzero;stroke:#111;stroke-width:1.89px;stroke-linecap:round;"/></svg>