<?xml version="1.0" encoding="UTF-8" standalone="no"?><!DOCTYPE svg PUBLIC "-//W3C//DTD SVG 1.1//EN" "http://www.w3.org/Graphics/SVG/1.1/DTD/svg11.dtd"><svg width="100%" height="100%" viewBox="0 0 360 36" version="1.1" xmlns="http://www.w3.org/2000/svg" xmlns:xlink="http://www.w3.org/1999/xlink" xml:space="preserve" xmlns:serif="http://www.serif.com/" style="fill-rule:evenodd;clip-rule:evenodd;"><path d="M351.282,10l0,16c0,2.208 -5.481,4 -12.234,4l-318.096,0c-6.753,0 -12.234,-1.792 -12.234,-4l0,-16c0,-2.208 5.481,-4 12.234,-4l318.096,0c6.753,0 12.234,1.792 12.234,4Z" style="fill:#fff;stroke:#111;stroke-width:4px;"/><circle cx="174" cy="18" r="1.6" style="fill:#111;"/><circle cx="186" cy="18" r="1.6" style="fill:#111;"/><path d="M187.735,18.26l0,5.282c0,1.104 -0.896,2 -2,2l-11.469,0c-1.104,0 -2,-0.896 -2,-2l0,-5.282c0,-1.104 0.896,-2 2,-2l11.469,0c1.104,0 2,0.896 2,2Z" style="fill:#fff;stroke:#111;stroke-width:2.17px;"/><path d="M176.133,16.26l0,-1.702c0,-2.398 1.702,-4.099 3.867,-4.099c2.166,0 3.867,1.702 3.867,4.099l0,1.702" style="fill:none;fill-rule:nonzero;stroke:#111;stroke-width:2.01px;stroke-linecap:round;"/><circle cx="180" cy="19.7" r="1.7" style="fill:#111;"/><path d="M180,21.2l0,1.94" style="fill:none;fill-rule:nonzero;stroke:#111;stroke-width:1.89px;stroke-linecap:round;"/></svg>