<?xml version="1.0" encoding="UTF-8" standalone="no"?><!DOCTYPE svg PUBLIC "-//W3C//DTD SVG 1.1//EN" "http://www.w3.org/Graphics/SVG/1.1/DTD/svg11.dtd"><svg width="100%" height="100%" viewBox="0 0 240 36" version="1.1" xmlns="http://www.w3.org/2000/svg" xmlns:xlink="http://www.w3.org/1999/xlink" xml:space="preserve" xmlns:serif="http://www.serif.com/" style="fill-rule:evenodd;clip-rule:evenodd;"><path d="M233.395,10l0,16c0,2.208 -3.629,4 -8.1,4l-210.59,0c-4.471,0 -8.1,-1.792 -8.1,-4l0,-16c0,-2.208 3.629,-4 8.1,-4l210.59,0c4.471,0 8.1,1.792 8.1,4Z" style="fill:#fff;stroke:#111;stroke-width:4px;"/><circle cx="114" cy="18" r="1.6" style="fill:#111;"/><circle cx="126" cy="18" r="1.6" style="fill:#111;"/><path d="M127.735,18.26l0,5.282c0,1.104 -0.896,2 -2,2l-11.469,0c-1.104,0 -2,-0.896 -2,-2l0,-5.282c0,-1.104 0.896,-2 2,-2l11.469,0c1.104,0 2,0.896 2,2Z" style="fill:#fff;stroke:#111;stroke-width:2.17px;"/><path d="M116.133,16.26l0,-1.702c0,-2.398 1.702,-4.099 3.867,-4.099c2.166,0 3.867,1.702 3.867,4.099l0,1.702" style="fill:none;fill-rule:nonzero;stroke:#111;stroke-width:2.01px;stroke-linecap:round;"/><circle cx="120" cy="19.7" r="1.7" style="fill:#111;"/><path d="M120,21.2l0,1.94" style="fill:none;fill-rule:nonzero;stroke:#111;stroke-width:1.89px;stroke-linecap:round;"/></svg>