<svg xmlns="http://www.w3.org/2000/svg" viewBox="0 0 72 72">
  <circle cx="36" cy="36" r="26" fill="#ffffff" stroke="#111111" stroke-width="4"/>
  <circle cx="36" cy="36" r="20" fill="#ffffff" stroke="#111111" stroke-width="2.8"/>
  <g stroke="#111111" stroke-width="2.4" stroke-linecap="round" opacity="0.95">
    <path d="M24 26c4 3 8 4.5 12 4.5s8-1.5 12-4.5" fill="none"/>
    <path d="M24 34c4 3 8 4.5 12 4.5s8-1.5 12-4.5" fill="none"/>
    <path d="M24 42c4 3 8 4.5 12 4.5s8-1.5 12-4.5" fill="none"/>
    <path d="M27 22c-2.5 8-2.5 20 0 28" fill="none"/>
    <path d="M36 18c-2 10-2 26 0 36" fill="none"/>
    <path d="M45 22c-2.5 8-2.5 20 0 28" fill="none"/>
  </g>
  <circle cx="36" cy="36" r="5" fill="#ffffff" stroke="#111111" stroke-width="2"/>
</svg>
