<?xml version="1.0" encoding="UTF-8" standalone="no"?><!DOCTYPE svg PUBLIC "-//W3C//DTD SVG 1.1//EN" "http://www.w3.org/Graphics/SVG/1.1/DTD/svg11.dtd"><svg width="100%" height="100%" viewBox="0 0 72 72" version="1.1" xmlns="http://www.w3.org/2000/svg" xmlns:xlink="http://www.w3.org/1999/xlink" xml:space="preserve" xmlns:serif="http://www.serif.com/" style="fill-rule:evenodd;clip-rule:evenodd;"><g><path d="M62,21.675l0,36.325c0,2.208 -1.792,4 -4,4l-40.942,-0.027l-7.058,-8.355l0,-39.618c0,-2.208 1.792,-4 4,-4l39.941,0c0.869,0 8.059,11.675 8.059,11.675Z" style="fill:#fff;stroke:#111;stroke-width:3px;"/><path d="M55.88,13.529l0,38.822c0,1.948 -1.581,3.529 -3.529,3.529l-38.822,0c-1.948,0 -3.529,-1.581 -3.529,-3.529l0,-38.822c0,-1.948 1.581,-3.529 3.529,-3.529l38.822,0c1.948,0 3.529,1.581 3.529,3.529Z" style="fill:#fff;stroke:#111;stroke-width:3px;"/><path d="M17.058,17.058l31.763,31.763m0,-31.763l-31.763,31.763m15.882,-38.822l0,45.88m-22.94,-22.94l45.88,0" style="fill:none;fill-rule:nonzero;stroke:#000;stroke-opacity:0.75;stroke-width:3px;"/></g><path d="M55.88,14l0,37.88c0,2.208 -1.792,4 -4,4l-37.88,0c-2.208,0 -4,-1.792 -4,-4l0,-37.88c0,-2.208 1.792,-4 4,-4l37.88,0c2.208,0 4,1.792 4,4Z" style="fill:#fff;stroke:#111;stroke-width:3px;"/><path d="M50.085,19.312l0,27.255c0,2.208 -1.792,4 -4,4l-26.29,0c-2.208,0 -4,-1.792 -4,-4l0,-27.255c0,-2.208 1.792,-4 4,-4l26.29,0c2.208,0 4,1.792 4,4Z" style="fill:none;stroke:#000;stroke-width:3px;stroke-linecap:round;stroke-linejoin:round;stroke-miterlimit:1.5;"/><path d="M26.365,50.568l0,2.345" style="fill:none;stroke:#000;stroke-width:3px;stroke-linecap:round;stroke-linejoin:round;stroke-miterlimit:1.5;"/><path d="M32.94,55.88l0,-1.957" style="fill:none;stroke:#000;stroke-width:3px;stroke-linecap:round;stroke-linejoin:round;stroke-miterlimit:1.5;"/><path d="M41.501,50.568l0,1.463" style="fill:none;stroke:#000;stroke-width:3px;stroke-linecap:round;stroke-linejoin:round;stroke-miterlimit:1.5;"/><path d="M50.085,45.119l1.89,0" style="fill:none;stroke:#000;stroke-width:3px;stroke-linecap:round;stroke-linejoin:round;stroke-miterlimit:1.5;"/><path d="M55.88,32.94l-2.211,0" style="fill:none;stroke:#000;stroke-width:3px;stroke-linecap:round;stroke-linejoin:round;stroke-miterlimit:1.5;"/><path d="M50.085,24.01l2.701,0" style="fill:none;stroke:#000;stroke-width:3px;stroke-linecap:round;stroke-linejoin:round;stroke-miterlimit:1.5;"/><path d="M45.236,15.312l0,-1.975" style="fill:none;stroke:#000;stroke-width:3px;stroke-linecap:round;stroke-linejoin:round;stroke-miterlimit:1.5;"/><path d="M32.94,10l0,2.455" style="fill:none;stroke:#000;stroke-width:3px;stroke-linecap:round;stroke-linejoin:round;stroke-miterlimit:1.5;"/><path d="M25.596,15.312l0,-1.975" style="fill:none;stroke:#000;stroke-width:3px;stroke-linecap:round;stroke-linejoin:round;stroke-miterlimit:1.5;"/><path d="M10,32.94l2.74,0" style="fill:none;stroke:#000;stroke-width:3px;stroke-linecap:round;stroke-linejoin:round;stroke-miterlimit:1.5;"/><path d="M15.795,23.144l-2.129,0" style="fill:none;stroke:#000;stroke-width:3px;stroke-linecap:round;stroke-linejoin:round;stroke-miterlimit:1.5;"/><path d="M15.795,43.495l-2.172,0" style="fill:none;stroke:#000;stroke-width:3px;stroke-linecap:round;stroke-linejoin:round;stroke-miterlimit:1.5;"/><path d="M55.281,53.986l5.824,6.535" style="fill:none;stroke:#000;stroke-width:3px;stroke-linecap:round;stroke-linejoin:round;stroke-miterlimit:1.5;"/><path d="M41.513,21.797l0,22.287" style="fill:none;stroke:#000;stroke-width:3px;stroke-linecap:round;stroke-linejoin:round;stroke-miterlimit:1.5;"/><path d="M24.367,44.083l0,-22.287" style="fill:none;stroke:#000;stroke-width:3px;stroke-linecap:round;stroke-linejoin:round;stroke-miterlimit:1.5;"/></svg>